# xmcd
#
# Track frame offsets: 
#        150
#        22395
#        44825
#        65832
#        88815
#        102585
#        114800
#        129840
#        156990
#        180452
#        195907
#        213322
#
# Disc length: 3099 seconds
#
# Revision: 0
# Processed by: cddbd v1.5PL3 Copyright (c) Steve Scherf et al.
# Submitted via: ExactAudioCopy v0.90b4
#
DISCID=ab0c190c
DTITLE=Dave Gleason's Wasted Days - Midnight, California
DYEAR=2004
DGENRE=Country
TTITLE0=Mightnight, California
TTITLE1=Pullin' Up the Tracks
TTITLE2=The Only One
TTITLE3=Listen to the Wind
TTITLE4=Some New Somone
TTITLE5=Insiration
TTITLE6=The Winner
TTITLE7=Downside of Life
TTITLE8=Hardest Part
TTITLE9=I'm Still Crying
TTITLE10=Backside of Love
TTITLE11=How Am I Supposed to Live (Without You)
EXTD=
EXTT0=
EXTT1=
EXTT2=
EXTT3=
EXTT4=
EXTT5=
EXTT6=
EXTT7=
EXTT8=
EXTT9=
EXTT10=
EXTT11=
PLAYORDER=
